<svg width="24" height="25" viewBox="0 0 24 25" fill="none" xmlns="http://www.w3.org/2000/svg">
<path d="M17.34 5.54252C17.1027 5.54252 16.8707 5.6129 16.6733 5.74476C16.476 5.87661 16.3222 6.06403 16.2313 6.2833C16.1405 6.50257 16.1168 6.74385 16.1631 6.97663C16.2094 7.2094 16.3236 7.42322 16.4915 7.59105C16.6593 7.75887 16.8731 7.87316 17.1059 7.91946C17.3387 7.96576 17.5799 7.942 17.7992 7.85117C18.0185 7.76035 18.2059 7.60654 18.3378 7.4092C18.4696 7.21186 18.54 6.97986 18.54 6.74252C18.54 6.42426 18.4136 6.11904 18.1885 5.89399C17.9635 5.66895 17.6583 5.54252 17.34 5.54252ZM21.94 7.96252C21.9206 7.13282 21.7652 6.31192 21.48 5.53252C21.2257 4.86565 20.83 4.2618 20.32 3.76252C19.8248 3.24995 19.2196 2.8567 18.55 2.61252C17.7727 2.31868 16.9508 2.15973 16.12 2.14252C15.06 2.08252 14.72 2.08252 12 2.08252C9.28 2.08252 8.94 2.08252 7.88 2.14252C7.04915 2.15973 6.22734 2.31868 5.45 2.61252C4.78168 2.85917 4.17693 3.25208 3.68 3.76252C3.16743 4.2577 2.77418 4.86296 2.53 5.53252C2.23616 6.30986 2.07721 7.13167 2.06 7.96252C2 9.02252 2 9.36252 2 12.0825C2 14.8025 2 15.1425 2.06 16.2025C2.07721 17.0334 2.23616 17.8552 2.53 18.6325C2.77418 19.3021 3.16743 19.9073 3.68 20.4025C4.17693 20.913 4.78168 21.3059 5.45 21.5525C6.22734 21.8464 7.04915 22.0053 7.88 22.0225C8.94 22.0825 9.28 22.0825 12 22.0825C14.72 22.0825 15.06 22.0825 16.12 22.0225C16.9508 22.0053 17.7727 21.8464 18.55 21.5525C19.2196 21.3083 19.8248 20.9151 20.32 20.4025C20.8322 19.9051 21.2283 19.3007 21.48 18.6325C21.7652 17.8531 21.9206 17.0322 21.94 16.2025C21.94 15.1425 22 14.8025 22 12.0825C22 9.36252 22 9.02252 21.94 7.96252ZM20.14 16.0825C20.1327 16.7173 20.0178 17.3462 19.8 17.9425C19.6403 18.3777 19.3839 18.7709 19.05 19.0925C18.7256 19.423 18.3332 19.679 17.9 19.8425C17.3037 20.0603 16.6748 20.1752 16.04 20.1825C15.04 20.2325 14.67 20.2425 12.04 20.2425C9.41 20.2425 9.04 20.2425 8.04 20.1825C7.38089 20.1949 6.72459 20.0934 6.1 19.8825C5.68578 19.7106 5.31136 19.4553 5 19.1325C4.66809 18.8113 4.41484 18.4177 4.26 17.9825C4.01586 17.3777 3.88044 16.7345 3.86 16.0825C3.86 15.0825 3.8 14.7125 3.8 12.0825C3.8 9.45252 3.8 9.08252 3.86 8.08252C3.86448 7.43358 3.98295 6.79046 4.21 6.18252C4.38605 5.76043 4.65627 5.38418 5 5.08252C5.30381 4.73869 5.67929 4.46562 6.1 4.28252C6.70955 4.06256 7.352 3.9476 8 3.94252C9 3.94252 9.37 3.88252 12 3.88252C14.63 3.88252 15 3.88252 16 3.94252C16.6348 3.9498 17.2637 4.06477 17.86 4.28252C18.3144 4.45117 18.7223 4.72537 19.05 5.08252C19.3777 5.3897 19.6338 5.76525 19.8 6.18252C20.0223 6.79145 20.1373 7.4343 20.14 8.08252C20.19 9.08252 20.2 9.45252 20.2 12.0825C20.2 14.7125 20.19 15.0825 20.14 16.0825ZM12 6.95252C10.9858 6.9545 9.99496 7.25705 9.15265 7.82194C8.31035 8.38683 7.65438 9.18872 7.26763 10.1263C6.88089 11.0638 6.78072 12.095 6.97979 13.0894C7.17886 14.0839 7.66824 14.9971 8.38608 15.7135C9.10392 16.4299 10.018 16.9175 11.0129 17.1147C12.0077 17.3118 13.0387 17.2096 13.9755 16.8211C14.9123 16.4325 15.7129 15.775 16.2761 14.9316C16.8394 14.0881 17.14 13.0967 17.14 12.0825C17.1413 11.4076 17.0092 10.7391 16.7512 10.1155C16.4933 9.49183 16.1146 8.92533 15.6369 8.44857C15.1592 7.97181 14.5919 7.5942 13.9678 7.33745C13.3436 7.0807 12.6749 6.94988 12 6.95252ZM12 15.4125C11.3414 15.4125 10.6976 15.2172 10.15 14.8513C9.60234 14.4854 9.17552 13.9653 8.92348 13.3569C8.67144 12.7484 8.6055 12.0788 8.73398 11.4329C8.86247 10.7869 9.17963 10.1936 9.64533 9.72785C10.111 9.26215 10.7044 8.94499 11.3503 8.8165C11.9963 8.68802 12.6659 8.75396 13.2743 9.006C13.8828 9.25804 14.4029 9.68485 14.7688 10.2325C15.1347 10.7801 15.33 11.4239 15.33 12.0825C15.33 12.5198 15.2439 12.9528 15.0765 13.3569C14.9092 13.7609 14.6639 14.128 14.3547 14.4372C14.0454 14.7464 13.6784 14.9917 13.2743 15.159C12.8703 15.3264 12.4373 15.4125 12 15.4125Z" fill="#F5EFDB"/>
</svg>
