<svg width="48" height="48" viewBox="0 0 48 48" fill="none" xmlns="http://www.w3.org/2000/svg">
<path d="M25.6508 13.7966H25.7487C26.1622 13.7966 26.4179 13.9981 26.5159 14.4011C26.8967 15.6208 27.0871 16.6881 27.0871 17.6029H27.1198C29.1655 16.4267 30.8903 15.8386 32.294 15.8386H32.7347C32.8544 15.8386 32.9306 15.8822 32.9632 15.9693V16.002C32.9415 16.0673 32.8762 16.1 32.7674 16.1H32.5388C30.9719 16.1 29.1655 16.7371 27.1198 18.0113C27.1415 18.4905 27.1524 18.8445 27.1524 19.0732V19.8083C27.1524 26.6477 25.5039 31.6193 22.2067 34.7232C20.8247 35.8776 19.47 36.4548 18.1424 36.4548H17.9302C16.7115 36.4548 15.7321 35.8776 14.9922 34.7232C14.6875 34.1242 14.5352 33.4435 14.5352 32.6812C14.5352 29.8496 16.5156 26.5388 20.4765 22.7488C22.8923 20.6142 24.6605 19.1984 25.7813 18.5014V18.3707C25.7813 16.8025 25.5474 15.3758 25.0795 14.0907V14.0253C25.1665 13.8729 25.357 13.7966 25.6508 13.7966ZM25.7487 18.9425C24.1491 20.1623 22.4135 21.6761 20.5418 23.4839C17.0706 27.1323 15.335 30.2416 15.335 32.8119C15.335 34.4673 16.0804 35.4692 17.5711 35.8177C17.6908 35.8504 17.8269 35.8667 17.9792 35.8667H18.273C19.6441 35.8667 21.0913 34.9628 22.6148 33.1549C24.7693 30.1926 25.8466 26.0596 25.8466 20.7558C25.8249 19.743 25.814 19.1494 25.814 18.9752L25.7487 18.9425Z" fill="#C4A56C"/>
<path d="M25.6085 11.2945C25.803 11.7584 25.7114 12.5889 25.2479 12.7835C24.7843 12.9782 24.1244 12.4634 23.9299 11.9995C23.7052 11.4635 24.2274 11.8037 24.6909 11.609C25.1544 11.4144 25.3688 10.7228 25.6085 11.2945Z" fill="#C4A56C"/>
<path d="M25.6085 11.2945C25.803 11.7584 25.7114 12.5889 25.2479 12.7835C24.7843 12.9782 24.1244 12.4634 23.9299 11.9995C23.7052 11.4635 24.2274 11.8037 24.6909 11.609C25.1544 11.4144 25.3688 10.7228 25.6085 11.2945Z" fill="#C4A56C"/>
<path d="M45.3632 22.5343C45.4293 22.5298 45.4793 22.4724 45.4744 22.4063C45.1984 18.6874 43.9613 15.1032 41.8833 12.005C39.783 8.87365 36.8973 6.34863 33.5148 4.68254C30.1324 3.01646 26.3718 2.26771 22.6091 2.5112C18.8465 2.75469 15.2137 3.98187 12.0742 6.07001C8.93468 8.15814 6.39849 11.034 4.71929 14.41C3.0401 17.7859 2.27677 21.5436 2.50566 25.3072C2.73455 29.0708 3.94764 32.7083 6.02358 35.8559C8.07748 38.97 10.9048 41.4966 14.2278 43.1889C14.2869 43.2189 14.3591 43.195 14.3888 43.1358L14.6663 42.5832C14.6961 42.524 14.6721 42.4519 14.6131 42.4218C11.4243 40.797 8.71127 38.372 6.74012 35.3833C4.74693 32.3612 3.58219 28.8687 3.36243 25.2551C3.14266 21.6416 3.87556 18.0336 5.48782 14.7922C7.10008 11.5509 9.53518 8.78961 12.5495 6.78471C15.5639 4.77981 19.0519 3.60154 22.6645 3.36776C26.2772 3.13398 29.8879 3.85288 33.1356 5.45255C36.3832 7.05223 39.1539 9.4766 41.1704 12.4832C43.1647 15.4565 44.3524 18.8961 44.618 22.4651C44.623 22.5312 44.6802 22.5812 44.7463 22.5766L45.3632 22.5343Z" fill="#C4A56C"/>
<path d="M15.5594 42.4267L15.5674 42.4115L16.0996 42.6902L16.0917 42.7054C16.0745 42.6964 16.0507 42.6864 16.0192 42.6772C15.9877 42.6679 15.961 42.6636 15.9331 42.666C15.9052 42.6683 15.8828 42.6833 15.8679 42.7118L15.3106 43.7762C15.2966 43.8029 15.2971 43.8297 15.311 43.854C15.325 43.8782 15.3428 43.8997 15.3693 43.9184C15.3949 43.9391 15.4167 43.9529 15.4338 43.9619L15.4248 43.979L14.8926 43.7003L14.9015 43.6832C14.95 43.711 14.9948 43.7272 15.0359 43.7318C15.0742 43.7373 15.1043 43.7215 15.1242 43.6835L15.6855 42.6114C15.7054 42.5734 15.7013 42.5397 15.6759 42.5095C15.6477 42.4802 15.6088 42.4526 15.5594 42.4267Z" fill="#C4A56C"/>
<path d="M17.12 44.6332C17.1727 44.6515 17.2201 44.6588 17.2595 44.6565C17.2989 44.6543 17.3263 44.6342 17.3403 44.5936L17.7337 43.456C17.7449 43.4236 17.7432 43.3958 17.7278 43.3745C17.7104 43.3526 17.6889 43.3361 17.6619 43.3222C17.6342 43.3104 17.6086 43.2992 17.5842 43.2908L17.5899 43.2746L17.9609 43.4029L18.4203 44.7401L18.7436 43.8053C18.7548 43.7728 18.7531 43.745 18.7377 43.7238C18.7203 43.7019 18.6988 43.6853 18.6718 43.6715C18.6441 43.6596 18.6184 43.6485 18.5941 43.6401L18.5997 43.6238L18.987 43.7578L18.9814 43.774C18.9611 43.767 18.9361 43.7606 18.9056 43.7569C18.8731 43.7524 18.8439 43.7514 18.8167 43.7579C18.7895 43.7644 18.7696 43.7825 18.7591 43.8129L18.325 45.0681L18.3088 45.0625L17.7548 43.4475L17.3565 44.5993C17.3425 44.6398 17.3516 44.6725 17.3853 44.7C17.4189 44.7275 17.4587 44.7504 17.5073 44.7672L17.5017 44.7834L17.1144 44.6495L17.12 44.6332Z" fill="#C4A56C"/>
<path d="M21.7232 45.0139L21.7235 45.0118C21.7372 44.9314 21.7402 44.8492 21.733 44.7631C21.7234 44.6788 21.7042 44.5994 21.6716 44.522C21.639 44.4447 21.5933 44.3804 21.5332 44.3245C21.4726 44.2707 21.3958 44.2359 21.3049 44.2205L21.0997 44.1857L20.8627 45.5841L21.0383 45.6138C21.1631 45.635 21.2725 45.6187 21.3682 45.5674C21.4618 45.5158 21.5396 45.442 21.602 45.3437C21.6622 45.2451 21.7027 45.1345 21.7232 45.0139ZM21.2781 44.1985C21.5172 44.2391 21.6975 44.3306 21.8153 44.4702C21.9327 44.612 21.9693 44.8075 21.9273 45.055C21.9051 45.1862 21.8512 45.2989 21.7631 45.395C21.675 45.491 21.5675 45.5599 21.4447 45.6043C21.3197 45.6484 21.1937 45.6597 21.0647 45.6379L20.4618 45.5357L20.465 45.5167C20.5196 45.5281 20.5672 45.5296 20.6057 45.5209C20.6438 45.5143 20.6675 45.49 20.6747 45.4477L20.8769 44.2546C20.8841 44.2123 20.8697 44.1816 20.8362 44.1607C20.8024 44.1419 20.757 44.1276 20.702 44.1183L20.7048 44.1014L21.2781 44.1985Z" fill="#C4A56C"/>
<path d="M23.7391 44.3596L23.7396 44.3425L24.3401 44.3595L24.3397 44.3766C24.3203 44.3761 24.2945 44.3775 24.2622 44.383C24.2298 44.3886 24.2039 44.3964 24.1798 44.4108C24.1558 44.4251 24.1423 44.4483 24.1414 44.4805L24.1073 45.6816C24.1065 45.7116 24.1187 45.7356 24.1419 45.7513C24.165 45.7669 24.1905 45.7784 24.2225 45.7836C24.2545 45.7909 24.2802 45.7938 24.2995 45.7944L24.2989 45.8137L23.6984 45.7966L23.6989 45.7773C23.7546 45.7811 23.802 45.776 23.841 45.762C23.8779 45.7502 23.898 45.7229 23.8992 45.68L23.9335 44.4703C23.9347 44.4274 23.9162 44.399 23.8801 44.3829C23.8419 44.369 23.7949 44.3612 23.7391 44.3596Z" fill="#C4A56C"/>
<path d="M26.5839 44.4012L26.4213 45.0771L26.9243 45.018L26.9046 44.9793L26.5839 44.4012ZM26.1381 45.6267C26.2254 45.6164 26.2817 45.5623 26.3072 45.4664L26.5705 44.379L26.4363 44.1377L26.6622 44.1112L27.356 45.3648C27.4058 45.4389 27.4699 45.4703 27.5488 45.461L27.5508 45.4781L26.9115 45.5531L26.9116 45.5358C26.9969 45.5258 27.0593 45.5055 27.097 45.4773C27.1348 45.4491 27.1433 45.4114 27.1186 45.3668L26.9595 45.0787L26.9489 45.0627L26.935 45.0362L26.4172 45.097L26.4098 45.126L26.4054 45.1438L26.3283 45.4618C26.3049 45.5574 26.3871 45.5953 26.5749 45.5754L26.5769 45.5924L26.1401 45.6437L26.1381 45.6267Z" fill="#C4A56C"/>
<path d="M29.556 45.2327C29.6095 45.2169 29.6523 45.1952 29.683 45.1705C29.7137 45.1457 29.7243 45.1135 29.7121 45.0723L29.37 43.9183C29.3602 43.8853 29.3426 43.8637 29.3178 43.8554C29.2909 43.8477 29.2638 43.8468 29.2337 43.8512C29.2043 43.8577 29.177 43.8636 29.1523 43.8709L29.1474 43.8544L29.5239 43.7428L30.6756 44.5629L30.3944 43.6146C30.3847 43.5816 30.3671 43.56 30.3422 43.5517C30.3153 43.544 30.2882 43.5431 30.2582 43.5475C30.2288 43.554 30.2014 43.5599 30.1768 43.5672L30.1719 43.5507L30.5648 43.4343L30.5697 43.4507C30.5491 43.4568 30.525 43.4662 30.4981 43.4809C30.469 43.4962 30.4447 43.5124 30.4264 43.5335C30.408 43.5546 30.4024 43.5809 30.4115 43.6117L30.789 44.8851L30.7725 44.89L29.3822 43.899L29.7285 45.0674C29.7407 45.1086 29.7672 45.1298 29.8105 45.1327C29.8539 45.1355 29.8995 45.1309 29.9489 45.1163L29.9538 45.1327L29.5609 45.2492L29.556 45.2327Z" fill="#C4A56C"/>
<path d="M33.7745 42.0147L34.5715 41.5126L34.9127 41.7845L34.9016 41.7991L34.8964 41.7948C34.6799 41.6243 34.4831 41.5937 34.3029 41.7021L34.1249 41.8142L34.4292 42.2971L34.5163 42.2422C34.6162 42.1793 34.6411 42.09 34.5941 41.9751L34.5764 41.9431L34.5928 41.9328L34.8375 42.3213L34.8212 42.3316C34.7839 42.2765 34.7408 42.2402 34.69 42.2241C34.6374 42.209 34.5836 42.2201 34.5255 42.2567L34.4383 42.3116L34.8238 42.9234C34.8398 42.9488 34.8633 42.9619 34.8912 42.9621C34.9192 42.9622 34.9485 42.9564 34.978 42.9429C35.0069 42.9323 35.0298 42.9204 35.0462 42.9101L35.0564 42.9264L34.55 43.2455L34.5397 43.2292C34.588 43.2013 34.6245 43.1707 34.6474 43.1385C34.6714 43.1082 34.6728 43.0743 34.65 43.038L34.0049 42.0141C33.982 41.9778 33.9508 41.9645 33.9119 41.9712C33.8742 41.9798 33.8309 41.9995 33.7837 42.0292L33.7745 42.0147Z" fill="#C4A56C"/>
<path d="M36.1618 40.5293L36.1508 40.5161L36.6115 40.1305L36.6225 40.1436C36.6077 40.156 36.5893 40.1742 36.5688 40.1998C36.5482 40.2254 36.534 40.2485 36.5255 40.2752C36.5171 40.3018 36.5224 40.3282 36.543 40.3529L37.3143 41.2742C37.3336 41.2973 37.3586 41.3071 37.3863 41.3035C37.4141 41.2998 37.4407 41.2915 37.4681 41.2742C37.497 41.2584 37.5181 41.2436 37.5329 41.2312L37.5453 41.246L37.0846 41.6316L37.0722 41.6168C37.1164 41.5826 37.1484 41.5474 37.1684 41.5111C37.1881 41.4778 37.185 41.444 37.1575 41.4111L36.3807 40.4832C36.3531 40.4503 36.3204 40.4413 36.2828 40.4532C36.2449 40.4681 36.2046 40.4935 36.1618 40.5293Z" fill="#C4A56C"/>
<path d="M39.0348 40.0252C39.0718 39.9835 39.0967 39.9425 39.1097 39.9053C39.1227 39.868 39.1146 39.8351 39.0826 39.8066L38.1824 39.0074C38.1567 38.9847 38.1303 38.9756 38.1048 38.9817C38.0779 38.9893 38.0544 39.0029 38.0313 39.0225C38.0097 39.0436 37.9896 39.063 37.9725 39.0822L37.9597 39.0708L38.2204 38.7772L39.6315 38.865L38.8918 38.2084C38.8661 38.1856 38.8397 38.1765 38.8142 38.1826C38.7873 38.1902 38.7638 38.2038 38.7407 38.2234C38.7191 38.2445 38.699 38.2639 38.6819 38.2832L38.6691 38.2718L38.9411 37.9653L38.954 37.9767C38.9397 37.9927 38.9242 38.0134 38.9091 38.0401C38.8926 38.0685 38.8805 38.095 38.876 38.1227C38.8716 38.1503 38.8807 38.1756 38.9048 38.1969L39.898 39.0787L39.8866 39.0915L38.1825 38.9846L39.0939 39.7937C39.126 39.8222 39.1597 39.8263 39.198 39.8058C39.2363 39.7853 39.2726 39.7573 39.3068 39.7188L39.3197 39.7302L39.0476 40.0366L39.0348 40.0252Z" fill="#C4A56C"/>
<path d="M41.5719 36.7933C41.6516 36.6893 41.6841 36.5846 41.6693 36.4793C41.6546 36.3739 41.614 36.2692 41.5492 36.1664L41.5652 36.1575L41.7989 36.5554L41.1481 37.3229L41.1334 37.3104L41.1431 37.299C41.175 37.2613 41.1965 37.2261 41.2102 37.1899C41.224 37.1538 41.2138 37.1226 41.1811 37.0949L40.2581 36.3123C40.2254 36.2845 40.1916 36.2812 40.1566 36.2993C40.1231 36.3188 40.0877 36.3506 40.0516 36.3932L40.0385 36.3821L40.6491 35.662L40.6663 35.6682L41.0549 35.8204L41.0487 35.8377L41.0424 35.8352C40.7861 35.736 40.5891 35.7659 40.4485 35.9251L40.3125 36.0855L40.7151 36.4269L40.7817 36.3483C40.8275 36.2943 40.8461 36.2426 40.8372 36.19C40.8283 36.1375 40.7985 36.0897 40.7491 36.045L40.7616 36.0303L41.1118 36.3272L41.098 36.3436C41.0472 36.3006 40.9968 36.2804 40.9435 36.2802C40.8903 36.28 40.8422 36.3068 40.7964 36.3608L40.7298 36.4394L41.3943 37.0027L41.5719 36.7933Z" fill="#C4A56C"/>
<path d="M43.4111 32.3098L43.409 32.3092C43.3309 32.286 43.2497 32.273 43.1633 32.2697C43.0785 32.2691 42.9973 32.2786 42.9166 32.3016C42.8359 32.3246 42.7665 32.3622 42.7037 32.4151C42.643 32.4687 42.5992 32.5408 42.5729 32.6292L42.5136 32.8287L43.8731 33.2329L43.9238 33.0622C43.9599 32.9409 43.957 32.8303 43.9177 32.7291C43.8778 32.6299 43.8139 32.5438 43.7239 32.47C43.6333 32.3983 43.5283 32.3447 43.4111 32.3098ZM42.5479 32.6531C42.617 32.4207 42.7297 32.2527 42.8825 32.1527C43.0374 32.0532 43.2359 32.0406 43.4766 32.1122C43.6041 32.1501 43.7095 32.2172 43.7942 32.3163C43.8789 32.4154 43.9342 32.5303 43.9635 32.6577C43.9922 32.7871 43.9882 32.9135 43.9509 33.0389L43.7766 33.6251L43.7581 33.6196C43.7761 33.5667 43.7833 33.5196 43.7793 33.4804C43.7774 33.4418 43.7562 33.4153 43.715 33.4031L42.5551 33.0582C42.5139 33.0459 42.4817 33.0565 42.4569 33.0872C42.4342 33.1185 42.4146 33.1619 42.3987 33.2153L42.3822 33.2105L42.5479 32.6531Z" fill="#C4A56C"/>
<path d="M43.5216 30.2568L43.5046 30.2543L43.5929 29.6601L43.6099 29.6626C43.6071 29.6817 43.6054 29.7075 43.607 29.7403C43.6087 29.773 43.6134 29.7998 43.6248 29.8253C43.6361 29.8509 43.6576 29.8671 43.6894 29.8718L44.8779 30.0485C44.9077 30.0529 44.9329 30.0437 44.9512 30.0225C44.9695 30.0014 44.9839 29.9775 44.9929 29.9463C45.004 29.9154 45.0099 29.8902 45.0128 29.8711L45.0319 29.874L44.9435 30.4682L44.9244 30.4654C44.9348 30.4105 44.9353 30.3629 44.9261 30.3225C44.9188 30.2845 44.894 30.2613 44.8516 30.255L43.6546 30.0771C43.6121 30.0707 43.5817 30.0857 43.5615 30.1196C43.5431 30.1559 43.5298 30.2017 43.5216 30.2568Z" fill="#C4A56C"/>
<path d="M45.5937 27.9657C45.5937 27.9099 45.5851 27.8627 45.5701 27.8262C45.555 27.7897 45.5271 27.7704 45.4842 27.7704L44.2805 27.7707C44.2462 27.7707 44.2204 27.7814 44.2054 27.8029C44.1904 27.8265 44.1818 27.8522 44.1775 27.8823C44.1754 27.9123 44.1733 27.9402 44.1733 27.9659L44.1561 27.9659L44.156 27.5733L45.2695 26.7019L44.2803 26.7021C44.246 26.7021 44.2202 26.7129 44.2052 26.7343C44.1902 26.7579 44.1816 26.7837 44.1773 26.8137C44.1752 26.8438 44.1731 26.8716 44.1731 26.8974L44.1559 26.8974L44.1558 26.4876L44.173 26.4876C44.173 26.509 44.1751 26.5348 44.1816 26.5648C44.188 26.597 44.1966 26.6249 44.2116 26.6485C44.2267 26.6721 44.2503 26.685 44.2825 26.685L45.6106 26.6847L45.6106 26.7019L44.2655 27.7535L45.4842 27.7533C45.5271 27.7533 45.555 27.7339 45.57 27.6932C45.5851 27.6524 45.5936 27.6073 45.5936 27.5558L45.6108 27.5558L45.6109 27.9657L45.5937 27.9657Z" fill="#C4A56C"/>
<path d="M45.8673 23.865C45.8575 23.7343 45.8121 23.6346 45.7309 23.5658C45.6498 23.497 45.5498 23.4459 45.433 23.4123L45.439 23.395L45.8783 23.5363L45.9037 24.5423L45.8844 24.5428L45.884 24.5278C45.8828 24.4784 45.8753 24.4378 45.8615 24.4017C45.8478 24.3656 45.8194 24.3491 45.7765 24.3502L44.5668 24.3808C44.5239 24.3819 44.4965 24.4019 44.4824 24.4387C44.4704 24.4755 44.4652 24.5229 44.4666 24.5786L44.4494 24.5791L44.4256 23.6353L44.4426 23.6284L44.8338 23.4833L44.8407 23.5003L44.8343 23.5026C44.5771 23.5992 44.45 23.7527 44.4511 23.9652L44.4564 24.1754L44.9841 24.162L44.9815 24.0591C44.9797 23.9883 44.9591 23.9373 44.9174 23.904C44.8758 23.8707 44.8218 23.8549 44.7552 23.8545L44.7547 23.8351L45.2138 23.8235L45.2143 23.845C45.1478 23.8467 45.0968 23.8651 45.0569 23.9005C45.017 23.9358 44.999 23.9878 45.0008 24.0586L45.0034 24.1615L45.8742 24.1395L45.8673 23.865Z" fill="#C4A56C"/>
</svg>
