<svg width="32" height="32" viewBox="0 0 32 32" fill="none" xmlns="http://www.w3.org/2000/svg">
<path d="M6.66675 10.6667H25.3334C25.687 10.6667 26.0262 10.5262 26.2762 10.2761C26.5263 10.0261 26.6667 9.68696 26.6667 9.33333C26.6667 8.97971 26.5263 8.64057 26.2762 8.39052C26.0262 8.14048 25.687 8 25.3334 8H6.66675C6.31313 8 5.97399 8.14048 5.72394 8.39052C5.47389 8.64057 5.33341 8.97971 5.33341 9.33333C5.33341 9.68696 5.47389 10.0261 5.72394 10.2761C5.97399 10.5262 6.31313 10.6667 6.66675 10.6667ZM28.0001 14.6667H4.00008C3.64646 14.6667 3.30732 14.8071 3.05727 15.0572C2.80722 15.3072 2.66675 15.6464 2.66675 16C2.66675 16.3536 2.80722 16.6928 3.05727 16.9428C3.30732 17.1929 3.64646 17.3333 4.00008 17.3333H28.0001C28.3537 17.3333 28.6928 17.1929 28.9429 16.9428C29.1929 16.6928 29.3334 16.3536 29.3334 16C29.3334 15.6464 29.1929 15.3072 28.9429 15.0572C28.6928 14.8071 28.3537 14.6667 28.0001 14.6667ZM25.3334 21.3333H6.66675C6.31313 21.3333 5.97399 21.4738 5.72394 21.7239C5.47389 21.9739 5.33341 22.313 5.33341 22.6667C5.33341 23.0203 5.47389 23.3594 5.72394 23.6095C5.97399 23.8595 6.31313 24 6.66675 24H25.3334C25.687 24 26.0262 23.8595 26.2762 23.6095C26.5263 23.3594 26.6667 23.0203 26.6667 22.6667C26.6667 22.313 26.5263 21.9739 26.2762 21.7239C26.0262 21.4738 25.687 21.3333 25.3334 21.3333Z" fill="#C4A56C"/>
</svg>
