<svg width="24" height="25" viewBox="0 0 24 25" fill="none" xmlns="http://www.w3.org/2000/svg">
<path d="M22.9912 4.03273C22.9913 3.85609 22.9446 3.68258 22.8559 3.52987C22.7671 3.37716 22.6395 3.25069 22.4859 3.16336C22.3324 3.07602 22.1585 3.03094 21.9819 3.03269C21.8052 3.03444 21.6322 3.08298 21.4805 3.17335C20.8951 3.52173 20.265 3.78853 19.6075 3.96635C18.6684 3.16058 17.4708 2.71965 16.2335 2.72416C14.876 2.72572 13.5723 3.25475 12.5977 4.19954C11.623 5.14432 11.0536 6.43092 11.0098 7.78764C8.33381 7.3609 5.90846 5.96416 4.19628 3.86378C4.09312 3.73861 3.96136 3.64009 3.81214 3.57652C3.66291 3.51295 3.50059 3.4862 3.33886 3.49853C3.17722 3.51183 3.02125 3.56432 2.88445 3.65144C2.74765 3.73855 2.63413 3.85768 2.5537 3.99853C2.14123 4.71834 1.90433 5.52528 1.86225 6.35383C1.82017 7.18238 1.97409 8.00918 2.31151 8.76708L2.30956 8.76902C2.15791 8.86243 2.03275 8.99318 1.94606 9.14877C1.85938 9.30437 1.81406 9.4796 1.81444 9.65771C1.8126 9.80463 1.82142 9.9515 1.84081 10.0972C1.94295 11.3554 2.50059 12.5332 3.40917 13.4097C3.34753 13.5271 3.30991 13.6556 3.29851 13.7877C3.28711 13.9199 3.30215 14.0529 3.34276 14.1792C3.73887 15.4133 4.58126 16.4552 5.70507 17.1011C4.56331 17.5426 3.33049 17.6965 2.11522 17.5493C1.89029 17.5211 1.66245 17.5701 1.46907 17.6884C1.27569 17.8067 1.12825 17.9872 1.05093 18.2003C0.973623 18.4134 0.97103 18.6465 1.04358 18.8612C1.11613 19.076 1.25952 19.2597 1.45022 19.3823C3.54031 20.7285 5.9739 21.4442 8.45999 21.4439C11.2792 21.4756 14.03 20.5747 16.2842 18.8813C18.5385 17.1879 20.1699 14.797 20.9248 12.0805C21.2779 10.8972 21.4581 9.669 21.46 8.43408C21.46 8.36865 21.46 8.30128 21.459 8.2339C21.9811 7.67083 22.3856 7.0092 22.6487 6.28779C22.9118 5.56639 23.0282 4.79972 22.9912 4.03273ZM19.6846 7.24464C19.5194 7.43998 19.4358 7.69143 19.4512 7.94679C19.4609 8.11179 19.4599 8.27778 19.4599 8.43408C19.4579 9.47763 19.3049 10.5154 19.0058 11.5151C18.3893 13.8265 17.015 15.8642 15.1029 17.3017C13.1909 18.7393 10.8517 19.4936 8.45999 19.4439C7.60087 19.4441 6.74471 19.3432 5.90921 19.1431C6.97462 18.7997 7.9708 18.2704 8.85159 17.5796C9.01381 17.4519 9.13254 17.2771 9.19148 17.0792C9.25041 16.8813 9.24667 16.67 9.18076 16.4743C9.11486 16.2787 8.99002 16.1082 8.82337 15.9863C8.65672 15.8644 8.45643 15.797 8.24999 15.7935C7.41882 15.7805 6.62512 15.4455 6.03612 14.8589C6.18554 14.8306 6.33398 14.7954 6.48144 14.7534C6.69745 14.6919 6.88648 14.5595 7.0181 14.3776C7.14972 14.1956 7.21626 13.9746 7.20701 13.7502C7.19777 13.5258 7.11327 13.311 6.96712 13.1405C6.82098 12.97 6.6217 12.8536 6.40136 12.8101C5.9189 12.7148 5.46491 12.5095 5.07467 12.2102C4.68444 11.911 4.36848 11.5257 4.15136 11.0845C4.33209 11.1091 4.51397 11.1245 4.69628 11.1304C4.91286 11.1336 5.12487 11.0679 5.30166 10.9428C5.47844 10.8176 5.61083 10.6395 5.67968 10.4341C5.74566 10.2268 5.74226 10.0037 5.67001 9.79862C5.59775 9.59348 5.46058 9.41751 5.27929 9.29737C4.83944 9.00434 4.47913 8.60679 4.23065 8.14032C3.98216 7.67386 3.85325 7.15304 3.85546 6.62453C3.85546 6.55813 3.85741 6.49172 3.86132 6.42629C6.10258 8.51654 9.00964 9.74873 12.0703 9.90578C12.2248 9.91186 12.3787 9.88276 12.5203 9.82068C12.6619 9.75859 12.7875 9.66514 12.8877 9.54738C12.9869 9.42848 13.0571 9.28818 13.0929 9.13753C13.1286 8.98689 13.1289 8.83 13.0937 8.67922C13.0365 8.44058 13.0074 8.19609 13.0068 7.9507C13.0077 7.09523 13.3479 6.27506 13.9529 5.67016C14.5578 5.06526 15.3779 4.72503 16.2334 4.72413C16.6735 4.72295 17.1091 4.81302 17.5127 4.98867C17.9163 5.16432 18.279 5.42172 18.5781 5.74464C18.6934 5.86872 18.8386 5.96123 18.9998 6.01337C19.161 6.06551 19.3328 6.07555 19.499 6.04253C19.9098 5.96258 20.3147 5.85492 20.7109 5.72027C20.4406 6.27324 20.0953 6.78621 19.6846 7.24464Z" fill="#F5EFDB"/>
</svg>
